<svg width="33" height="46" viewBox="0 0 33 46" fill="none" xmlns="http://www.w3.org/2000/svg">
<path d="M32.76 38.08V46H2.2V38.08H13.56V10.16C13.08 10.8 12.3333 11.4667 11.32 12.16C10.3067 12.8533 9.18667 13.4933 7.96 14.08C6.73333 14.6667 5.45333 15.1733 4.12 15.6C2.78667 15.9733 1.61333 16.16 0.6 16.16V7.92C1.66667 7.92 2.89333 7.6 4.28 6.96C5.72 6.32 7.08 5.57333 8.36 4.72C9.69333 3.86667 10.84 3.01333 11.8 2.16C12.8133 1.30667 13.4 0.693332 13.56 0.319997H22.6V38.08H32.76Z" fill="black" fill-opacity="0.03"/>
</svg>
