<svg width="42" height="58" viewBox="0 0 42 58" fill="none" xmlns="http://www.w3.org/2000/svg">
<path d="M41.32 40.6C41.32 43.16 40.76 45.5067 39.64 47.64C38.5733 49.72 37.1067 51.5067 35.24 53C33.3733 54.4933 31.2133 55.64 28.76 56.44C26.3067 57.24 23.6933 57.64 20.92 57.64C18.0933 57.64 15.4267 57.2133 12.92 56.36C10.4667 55.4533 8.33333 54.2267 6.52 52.68C4.70667 51.1333 3.26667 49.2933 2.2 47.16C1.18667 45.0267 0.68 42.7067 0.68 40.2C0.68 38.5467 0.973334 37 1.56 35.56C2.14667 34.12 2.89333 32.84 3.8 31.72C4.76 30.5467 5.82667 29.5333 7 28.68C8.17333 27.8267 9.34667 27.1333 10.52 26.6C8.33333 25.64 6.46667 24.1733 4.92 22.2C3.37333 20.2267 2.6 17.9867 2.6 15.48C2.6 13.0267 3.16 10.8667 4.28 9C5.4 7.08 6.84 5.48 8.6 4.2C10.36 2.86666 12.3333 1.88 14.52 1.24C16.7067 0.546664 18.8667 0.199997 21 0.199997C23.1333 0.199997 25.2933 0.546664 27.48 1.24C29.72 1.88 31.72 2.84 33.48 4.12C35.2933 5.4 36.76 7 37.88 8.92C39 10.7867 39.56 12.9467 39.56 15.4C39.56 17.9067 38.76 20.1733 37.16 22.2C35.6133 24.1733 33.72 25.64 31.48 26.6C32.76 27.1867 33.9867 27.9333 35.16 28.84C36.3867 29.6933 37.4533 30.7333 38.36 31.96C39.2667 33.1333 39.9867 34.44 40.52 35.88C41.0533 37.32 41.32 38.8933 41.32 40.6ZM32.44 40.04C32.44 38.4933 32.0933 37.1333 31.4 35.96C30.76 34.7333 29.88 33.6933 28.76 32.84C27.6933 31.9867 26.4667 31.3467 25.08 30.92C23.7467 30.4933 22.3867 30.28 21 30.28C19.56 30.28 18.1467 30.52 16.76 31C15.4267 31.4267 14.2267 32.0667 13.16 32.92C12.1467 33.7733 11.32 34.8133 10.68 36.04C10.04 37.2133 9.72 38.5467 9.72 40.04C9.72 41.5333 10.04 42.8933 10.68 44.12C11.3733 45.2933 12.2533 46.3067 13.32 47.16C14.3867 47.96 15.5867 48.6 16.92 49.08C18.3067 49.5067 19.6933 49.72 21.08 49.72C22.52 49.72 23.9067 49.48 25.24 49C26.6267 48.52 27.8533 47.8533 28.92 47C29.9867 46.1467 30.84 45.1333 31.48 43.96C32.12 42.7867 32.44 41.48 32.44 40.04ZM11.48 15.8C11.48 17.08 11.7733 18.2 12.36 19.16C12.9467 20.12 13.6933 20.92 14.6 21.56C15.5067 22.2 16.52 22.7067 17.64 23.08C18.76 23.4 19.88 23.56 21 23.56C22.12 23.56 23.24 23.4 24.36 23.08C25.5333 22.7067 26.5733 22.2 27.48 21.56C28.3867 20.8667 29.1333 20.04 29.72 19.08C30.3067 18.0667 30.6 16.92 30.6 15.64C30.6 14.4667 30.3333 13.4267 29.8 12.52C29.2667 11.56 28.5467 10.76 27.64 10.12C26.7867 9.42666 25.7733 8.92 24.6 8.6C23.48 8.22666 22.28 8.04 21 8.04C19.72 8.04 18.4933 8.22666 17.32 8.6C16.2 8.97333 15.1867 9.50666 14.28 10.2C13.4267 10.84 12.7333 11.64 12.2 12.6C11.72 13.56 11.48 14.6267 11.48 15.8Z" fill="black" fill-opacity="0.03"/>
</svg>
