<svg width="40" height="58" viewBox="0 0 40 58" fill="none" xmlns="http://www.w3.org/2000/svg">
<path d="M20.8 20.64C23.4667 20.64 25.92 21.0933 28.16 22C30.4533 22.9067 32.4267 24.16 34.08 25.76C35.7867 27.36 37.0933 29.28 38 31.52C38.96 33.76 39.44 36.2133 39.44 38.88C39.44 41.7067 38.9067 44.2933 37.84 46.64C36.8267 48.9867 35.3867 50.9867 33.52 52.64C31.7067 54.3467 29.5467 55.6533 27.04 56.56C24.5333 57.4667 21.84 57.92 18.96 57.92C14.8533 57.92 11.1733 56.9867 7.92 55.12C4.66667 53.3067 2.18667 50.8267 0.48 47.68L5.76 42.64C7.25333 44.88 9.17333 46.6933 11.52 48.08C13.8667 49.4667 16.3733 50.16 19.04 50.16C22.3467 50.16 25.0667 49.1467 27.2 47.12C29.3333 45.0933 30.4 42.4 30.4 39.04C30.4 37.44 30.1067 36 29.52 34.72C28.9867 33.3867 28.24 32.2667 27.28 31.36C26.32 30.4 25.1733 29.6533 23.84 29.12C22.56 28.5867 21.1467 28.32 19.6 28.32C17.5733 28.32 15.68 28.7733 13.92 29.68C12.16 30.5333 10.72 31.8133 9.6 33.52H1.84C1.89333 33.3067 2 32.6667 2.16 31.6C2.37333 30.5333 2.64 29.2 2.96 27.6C3.28 26 3.62667 24.2133 4 22.24C4.37333 20.2667 4.77333 18.2667 5.2 16.24C6.16 11.4933 7.2 6.18666 8.32 0.319997H36.08V8.4H14.72L11.84 23.92C12.7467 22.9067 13.9467 22.1067 15.44 21.52C16.9867 20.9333 18.7733 20.64 20.8 20.64Z" fill="black" fill-opacity="0.03"/>
</svg>
