<svg width="43" height="59" viewBox="0 0 43 59" fill="none" xmlns="http://www.w3.org/2000/svg">
<path d="M42.12 39.12C42.12 41.84 41.5867 44.4 40.52 46.8C39.5067 49.2 38.0667 51.3067 36.2 53.12C34.3867 54.88 32.2267 56.2667 29.72 57.28C27.2133 58.2933 24.52 58.8 21.64 58.8C18.4933 58.8 15.64 58.24 13.08 57.12C10.52 55.9467 8.33333 54.2933 6.52 52.16C4.70667 49.9733 3.29333 47.3333 2.28 44.24C1.32 41.0933 0.84 37.5467 0.84 33.6C0.84 28.16 1.34667 23.4133 2.36 19.36C3.42667 15.2533 4.89333 11.84 6.76 9.12C8.62667 6.34666 10.8933 4.26666 13.56 2.88C16.2267 1.49333 19.2133 0.799997 22.52 0.799997C26.1467 0.799997 29.4533 1.62666 32.44 3.28C35.48 4.93333 37.9333 7.28 39.8 10.32L34.6 15.76C33.3733 13.52 31.6667 11.76 29.48 10.48C27.3467 9.14666 24.9733 8.48 22.36 8.48C18.36 8.48 15.16 10.1867 12.76 13.6C10.4133 16.96 9.18667 21.7067 9.08 27.84C10.2533 25.44 12.0133 23.5467 14.36 22.16C16.7067 20.7733 19.4 20.08 22.44 20.08C25.2133 20.08 27.8 20.5867 30.2 21.6C32.6 22.56 34.68 23.8933 36.44 25.6C38.2 27.3067 39.5867 29.3333 40.6 31.68C41.6133 33.9733 42.12 36.4533 42.12 39.12ZM21.64 51.28C23.2933 51.28 24.84 50.96 26.28 50.32C27.7733 49.68 29.0533 48.8 30.12 47.68C31.24 46.56 32.12 45.28 32.76 43.84C33.4 42.3467 33.72 40.7733 33.72 39.12C33.72 37.4667 33.4 35.92 32.76 34.48C32.12 33.04 31.24 31.7867 30.12 30.72C29.0533 29.6 27.7733 28.72 26.28 28.08C24.84 27.44 23.2933 27.12 21.64 27.12C19.9867 27.12 18.4133 27.44 16.92 28.08C15.48 28.72 14.2 29.6 13.08 30.72C12.0133 31.7867 11.16 33.04 10.52 34.48C9.88 35.92 9.56 37.4667 9.56 39.12C9.56 40.7733 9.88 42.3467 10.52 43.84C11.16 45.28 12.0133 46.56 13.08 47.68C14.2 48.8 15.48 49.68 16.92 50.32C18.4133 50.96 19.9867 51.28 21.64 51.28Z" fill="black" fill-opacity="0.03"/>
</svg>
