<svg width="38" height="47" viewBox="0 0 38 47" fill="none" xmlns="http://www.w3.org/2000/svg">
<path d="M0.2 47C0.2 44.76 0.386667 42.68 0.76 40.76C1.13333 38.84 1.8 37.0533 2.76 35.4C3.72 33.6933 5.02667 32.0933 6.68 30.6C8.33333 29.0533 10.4667 27.56 13.08 26.12C14.9467 25.1067 16.7067 24.1733 18.36 23.32C20.0133 22.4667 21.4533 21.64 22.68 20.84C23.96 19.9867 24.9733 19.1067 25.72 18.2C26.4667 17.24 26.84 16.1467 26.84 14.92C26.84 13.2133 26.0933 11.6933 24.6 10.36C23.16 8.97333 21.0533 8.28 18.28 8.28C16.84 8.28 15.5067 8.49333 14.28 8.92C13.1067 9.29333 12.0133 9.8 11 10.44C10.04 11.0267 9.18667 11.6933 8.44 12.44C7.69333 13.1867 7.02667 13.9067 6.44 14.6L0.84 8.12C1.37333 7.53333 2.2 6.81333 3.32 5.96C4.49333 5.05333 5.88 4.2 7.48 3.4C9.13333 2.6 11 1.93333 13.08 1.4C15.16 0.81333 17.4267 0.519998 19.88 0.519998C22.44 0.519998 24.7333 0.866665 26.76 1.56C28.84 2.2 30.5733 3.10666 31.96 4.28C33.4 5.45333 34.4933 6.86666 35.24 8.52C35.9867 10.12 36.36 11.8533 36.36 13.72C36.36 15.6933 35.96 17.4533 35.16 19C34.36 20.5467 33.3733 21.9067 32.2 23.08C31.0267 24.2533 29.7467 25.2667 28.36 26.12C26.9733 26.92 25.6933 27.6133 24.52 28.2C23.4 28.7333 22.12 29.3733 20.68 30.12C19.2933 30.8133 17.9333 31.64 16.6 32.6C15.2667 33.5067 14.0667 34.4933 13 35.56C11.9333 36.6267 11.1867 37.8 10.76 39.08H37.24V47H0.2Z" fill="black" fill-opacity="0.03"/>
</svg>
