<svg width="39" height="59" viewBox="0 0 39 59" fill="none" xmlns="http://www.w3.org/2000/svg">
<path d="M27.52 28.12C29.1733 28.44 30.6933 29.0267 32.08 29.88C33.4667 30.68 34.64 31.6933 35.6 32.92C36.56 34.1467 37.3067 35.56 37.84 37.16C38.3733 38.76 38.64 40.4933 38.64 42.36C38.64 44.8667 38.16 47.1067 37.2 49.08C36.2933 51.1067 34.96 52.84 33.2 54.28C31.4933 55.72 29.4133 56.8133 26.96 57.56C24.5067 58.36 21.76 58.76 18.72 58.76C14.6667 58.76 11.0933 58.04 8 56.6C4.90667 55.2133 2.42667 53.1867 0.56 50.52L5.92 44.44C7.2 46.4133 8.85333 47.96 10.88 49.08C12.9067 50.2 15.4667 50.76 18.56 50.76C22.08 50.76 24.7733 50.0133 26.64 48.52C28.56 47.0267 29.52 44.7867 29.52 41.8C29.52 38.7067 28.4533 36.28 26.32 34.52C24.1867 32.76 21.04 31.88 16.88 31.88H14.72V25H17.12C20.6933 25 23.44 24.1733 25.36 22.52C27.28 20.8133 28.24 18.68 28.24 16.12C28.24 13.56 27.3867 11.6933 25.68 10.52C23.9733 9.29333 21.76 8.68 19.04 8.68C16.32 8.68 13.92 9.26666 11.84 10.44C9.76 11.6133 8.10667 13.2933 6.88 15.48L1.36 9.48C2.10667 8.2 3.12 7.05333 4.4 6.04C5.68 4.97333 7.12 4.06667 8.72 3.32C10.3733 2.52 12.1333 1.93333 14 1.56C15.92 1.13333 17.8933 0.919997 19.92 0.919997C22.5333 0.919997 24.9067 1.26666 27.04 1.96C29.2267 2.65333 31.0933 3.61333 32.64 4.84C34.24 6.06667 35.4667 7.56 36.32 9.32C37.1733 11.08 37.6 13.0267 37.6 15.16C37.6 16.76 37.36 18.28 36.88 19.72C36.4 21.16 35.7067 22.4667 34.8 23.64C33.9467 24.8133 32.9067 25.8 31.68 26.6C30.4533 27.3467 29.0667 27.8533 27.52 28.12Z" fill="black" fill-opacity="0.03"/>
</svg>
