<svg width="42" height="59" viewBox="0 0 42 59" fill="none" xmlns="http://www.w3.org/2000/svg">
<path d="M0.72 20C0.72 17.28 1.25333 14.72 2.32 12.32C3.38667 9.92 4.82667 7.84 6.64 6.08C8.50667 4.26666 10.6933 2.85333 13.2 1.84C15.7067 0.826663 18.4 0.319997 21.28 0.319997C24.3733 0.319997 27.2 0.906664 29.76 2.08C32.32 3.2 34.5067 4.85333 36.32 7.04C38.1333 9.17333 39.52 11.8133 40.48 14.96C41.4933 18.0533 42 21.5733 42 25.52C42 30.96 41.4667 35.7333 40.4 39.84C39.3867 43.8933 37.9467 47.28 36.08 50C34.2133 52.7733 31.92 54.8533 29.2 56.24C26.5333 57.6267 23.5733 58.32 20.32 58.32C16.6933 58.32 13.36 57.4933 10.32 55.84C7.33333 54.1867 4.90667 51.84 3.04 48.8L8.24 43.36C9.46667 45.6 11.1467 47.36 13.28 48.64C15.4667 49.9733 17.8667 50.64 20.48 50.64C24.48 50.64 27.6533 48.96 30 45.6C32.4 42.1867 33.6533 37.4133 33.76 31.28C32.64 33.68 30.88 35.5733 28.48 36.96C26.1333 38.3467 23.44 39.04 20.4 39.04C17.6267 39.04 15.04 38.56 12.64 37.6C10.24 36.5867 8.16 35.2267 6.4 33.52C4.64 31.8133 3.25333 29.8133 2.24 27.52C1.22667 25.1733 0.72 22.6667 0.72 20ZM21.2 7.84C19.5467 7.84 17.9733 8.16 16.48 8.8C15.04 9.44 13.76 10.32 12.64 11.44C11.5733 12.56 10.72 13.8667 10.08 15.36C9.44 16.8 9.12 18.3467 9.12 20C9.12 21.6533 9.44 23.2 10.08 24.64C10.72 26.08 11.5733 27.36 12.64 28.48C13.76 29.5467 15.04 30.4 16.48 31.04C17.9733 31.68 19.5467 32 21.2 32C22.8533 32 24.4 31.68 25.84 31.04C27.3333 30.4 28.6133 29.5467 29.68 28.48C30.8 27.36 31.68 26.08 32.32 24.64C32.96 23.2 33.28 21.6533 33.28 20C33.28 18.3467 32.96 16.8 32.32 15.36C31.68 13.8667 30.8 12.56 29.68 11.44C28.6133 10.32 27.3333 9.44 25.84 8.8C24.4 8.16 22.8533 7.84 21.2 7.84Z" fill="black" fill-opacity="0.03"/>
</svg>
